<?xml version="1.0" standalone="no"?><!DOCTYPE svg PUBLIC "-//W3C//DTD SVG 1.1//EN" "http://www.w3.org/Graphics/SVG/1.1/DTD/svg11.dtd"><svg t="1774196884393" class="icon" viewBox="0 0 1024 1024" version="1.1" xmlns="http://www.w3.org/2000/svg" p-id="13042" xmlns:xlink="http://www.w3.org/1999/xlink" width="200" height="200"><path d="M375.466667 785.066667c-64.853333 0-119.466667 54.613333-119.466667 119.466666S310.613333 1024 375.466667 1024s119.466667-54.613333 119.466666-119.466667S440.32 785.066667 375.466667 785.066667zM785.066667 785.066667c-64.853333 0-119.466667 54.613333-119.466667 119.466666S720.213333 1024 785.066667 1024s119.466667-54.613333 119.466666-119.466667S849.92 785.066667 785.066667 785.066667zM938.666667 426.666667c-44.373333 34.133333-98.986667 51.2-153.6 51.2-139.946667 0-256-116.053333-256-256 0-10.24-6.826667-17.066667-17.066667-17.066667H208.213333L187.733333 81.92c0-6.826667-10.24-13.653333-17.066666-13.653333H34.133333c-10.24 0-17.066667 6.826667-17.066666 17.066666s6.826667 17.066667 17.066666 17.066667h122.88L238.933333 634.88c13.653333 64.853333 81.92 116.053333 153.6 116.053333H887.466667c10.24 0 17.066667-6.826667 17.066666-17.066666s-6.826667-17.066667-17.066666-17.066667H392.533333c-54.613333 0-109.226667-40.96-119.466666-88.746667l-6.826667-47.786666H853.333333c54.613333 0 95.573333-34.133333 102.4-78.506667l10.24-58.026667c0-6.826667-3.413333-13.653333-6.826666-17.066666-6.826667-6.826667-13.653333-6.826667-20.48 0z" fill="#ffffff" p-id="13043"></path><path d="M785.066667 443.733333c122.88 0 221.866667-98.986667 221.866666-221.866666S907.946667 0 785.066667 0s-221.866667 98.986667-221.866667 221.866667S662.186667 443.733333 785.066667 443.733333z m-68.266667-238.933333h51.2V153.6c0-10.24 6.826667-17.066667 17.066667-17.066667s17.066667 6.826667 17.066666 17.066667V204.8H853.333333c10.24 0 17.066667 6.826667 17.066667 17.066667s-6.826667 17.066667-17.066667 17.066666h-51.2v51.2c0 10.24-6.826667 17.066667-17.066666 17.066667s-17.066667-6.826667-17.066667-17.066667V238.933333H716.8c-10.24 0-17.066667-6.826667-17.066667-17.066666s6.826667-17.066667 17.066667-17.066667z" fill="#ffffff" p-id="13044"></path></svg>